<svg enable-background="new 0 0 32 32" height="512" viewBox="0 0 32 32" width="512" xmlns="http://www.w3.org/2000/svg"><path d="m26 32h-20c-3.314 0-6-2.686-6-6v-20c0-3.314 2.686-6 6-6h20c3.314 0 6 2.686 6 6v20c0 3.314-2.686 6-6 6z" fill="#fff9dd"/><path d="m20.583 12c-.552 0-1 .448-1 1v.167c0 .092-.075.167-.167.167s-.167-.075-.167-.167v-.833c0-.552-.448-1-1-1s-1 .448-1 1v.833c0 .092-.075.167-.167.167s-.167-.075-.167-.167v-1.5c0-.552-.448-1-1-1s-1 .448-1 1v1.5c0 .092-.075.167-.167.167s-.167-.075-.167-.167v-1.167c0-.552-.448-1-1-1s-1 .448-1 1v1.333 1.5c0 .092-.075.167-.167.167s-.167-.075-.167-.167v-1.5h-.329c-1.097 0-2.005.885-2.004 1.982.003 3.521 2.566 6.018 4.142 6.018h4.858c1.473 0 2.667-1.194 2.667-2.667v-5.666c.002-.552-.445-1-.998-1z" fill="#ffd200"/></svg>