<svg width="36" height="36" viewBox="0 0 36 36" fill="none" xmlns="http://www.w3.org/2000/svg">
<path d="M13.5 33C14.3284 33 15 32.3284 15 31.5C15 30.6716 14.3284 30 13.5 30C12.6716 30 12 30.6716 12 31.5C12 32.3284 12.6716 33 13.5 33Z" stroke="#3ED749" stroke-width="3" stroke-linecap="round" stroke-linejoin="round"/>
<path d="M30 33C30.8284 33 31.5 32.3284 31.5 31.5C31.5 30.6716 30.8284 30 30 30C29.1716 30 28.5 30.6716 28.5 31.5C28.5 32.3284 29.1716 33 30 33Z" stroke="#3ED749" stroke-width="3" stroke-linecap="round" stroke-linejoin="round"/>
<path d="M1.5 1.5H7.5L11.52 21.585C11.6572 22.2756 12.0329 22.8959 12.5813 23.3374C13.1298 23.779 13.816 24.0135 14.52 24H29.1C29.804 24.0135 30.4902 23.779 31.0387 23.3374C31.5871 22.8959 31.9628 22.2756 32.1 21.585L34.5 9H9" stroke="#3ED749" stroke-width="3" stroke-linecap="round" stroke-linejoin="round"/>
</svg>
