<?xml version="1.0" encoding="utf-8"?>
<!-- Generator: Adobe Illustrator 25.1.0, SVG Export Plug-In . SVG Version: 6.00 Build 0)  -->
<svg version="1.1" id="Layer_1" xmlns="http://www.w3.org/2000/svg" xmlns:xlink="http://www.w3.org/1999/xlink" x="0px" y="0px"
	 viewBox="0 0 119 119" style="enable-background:new 0 0 119 119;" xml:space="preserve">
<style type="text/css">
	.st0{fill:#3ED749;}
</style>
<g id="Group_16_1_" transform="translate(0 0)">
	<path id="Path_1_1_" class="st0" d="M99.2,41.9C93.7,20,71.5,6.7,49.6,12.2C32.4,16.5,20,31.3,18.7,48.9
		C6.6,50.9-1.7,62.4,0.3,74.5c1.8,10.8,11.2,18.8,22.2,18.7H41v-7.4H22.4c-8.2,0-14.9-6.6-14.9-14.9c0-8.2,6.6-14.9,14.9-14.9
		c0,0,0,0,0,0c2.1,0,3.7-1.7,3.7-3.7c0-18.5,14.9-33.5,33.4-33.5c16,0,29.8,11.3,32.9,27c0.3,1.6,1.6,2.8,3.2,3
		c10.2,1.5,17.2,10.9,15.8,21c-1.3,9.1-9.1,15.9-18.3,16H78.2v7.4h14.9c14.4-0.1,26-11.8,25.9-26.1C118.9,55.2,110.8,44.8,99.2,41.9
		z"/>
	<path id="Path_2_1_" class="st0" d="M57,57.1L42.1,72l5.2,5.2l8.6-8.5v35.7h7.4V68.7l8.5,8.5l5.2-5.2L62.2,57.1
		C60.8,55.7,58.4,55.7,57,57.1z"/>
</g>
</svg>
